# xmcd
#
# Track frame offsets: 
#        150
#        12972
#        43635
#        67997
#        80725
#        114387
#        136007
#        163925
#        178430
#        197347
#        218910
#        243947
#        268160
#        289442
#
# Disc length: 4200 seconds
#
# Revision: 0
# Processed by: cddbd v1.5.1PL2 Copyright (c) Steve Scherf et al.
# Submitted via: ExactAudioCopy v0.95a5
#
DISCID=cf10660e
DTITLE=Glenn Lane  - Standing On The Edge Of The Blues
DYEAR=1993
DGENRE=Blues
TTITLE0=Oowwee Baby
TTITLE1=Let Me Be me
TTITLE2=Standing On The Edge Of The Blues
TTITLE3=You Never Gave Up
TTITLE4=Georgia On My Mind
TTITLE5=Stranger In My Hometown
TTITLE6=Book Of The Blues
TTITLE7=Brown Orange Squeezer
TTITLE8=Richard's Song
TTITLE9=I'm Damn Lucky
TTITLE10=I'm Your Puppet
TTITLE11=Must Be Voodoo
TTITLE12=Allow Me To Come Home
TTITLE13=Front Door In, Back Door Out
EXTD=
EXTT0=
EXTT1=
EXTT2=
EXTT3=
EXTT4=
EXTT5=
EXTT6=
EXTT7=
EXTT8=
EXTT9=
EXTT10=
EXTT11=
EXTT12=
EXTT13=
PLAYORDER=
